<svg xmlns="http://www.w3.org/2000/svg" viewBox="0 0 24 24" width="1em" height="1em">
    <defs>
        <g id="box">
            <path d="M4,4 l0,16 l16,0 l0,-16 l-15,0 l0,1 l14,0 l0,14 l-14,0 l0,-15 l-1,0 Z" fill="currentColor" />
        </g>
        <g id="command-box">
            <use href="#box" />
            <path
                d="M6,7 l3,0 l0,1 l1,0 l0,1 l1,0 l0,1 l1,0 l0,1 l1,0 l0,2 l-1,0 l0,1 l-1,0 l0,1 l-1,0 l0,1 l-1,0 l0,1 l-3,0 l0,-1 l1,0 l0,-1 l1,0 l0,-1 l1,0 l0,-1 l1,0 l0,-2 l-1,0 l0,-1 l-1,0 l0,-1 l-1,0 l0,-1 l-1,0 l0,-1 Z"
                fill="currentColor" />
            <rect x="15" y="7" width="2" height="2" fill="currentColor" />
            <rect x="13" y="16" width="4" height="1" fill="currentColor" />
        </g>
    </defs>

    <use x="0" y="0" href="#command-box" />
</svg>
