<svg xmlns="http://www.w3.org/2000/svg" viewBox="0 0 24 24" width="1em" height="1em">
    <g id="command-box">
        <mask id="box">
            <rect x="4" y="4" width="16" height="16" fill="white" />
            <rect x="5" y="5" width="14" height="14" fill="black" />
        </mask>
        <rect x="4" y="4" width="16" height="16" fill="currentColor" mask="url(#box)" />
        <path
            d="M6,7 l3,0 l0,1 l1,0 l0,1 l1,0 l0,1 l1,0 l0,1 l1,0 l0,2 l-1,0 l0,1 l-1,0 l0,1 l-1,0 l0,1 l-1,0 l0,1 l-3,0 l0,-1 l1,0 l0,-1 l1,0 l0,-1 l1,0 l0,-1 l1,0 l0,-2 l-1,0 l0,-1 l-1,0 l0,-1 l-1,0 l0,-1 l-1,0 l0,-1 Z"
            fill="currentColor" />
        <rect x="15" y="7" width="2" height="2" fill="currentColor" />
        <rect x="13" y="16" width="4" height="1" fill="currentColor" />
    </g>
</svg>
